# xmcd
#
# Track frame offsets: 
#        150
#        14760
#        36291
#        51032
#        75013
#        92669
#        114447
#        127678
#        150370
#        161880
#        178010
#
# Disc length: 2606 seconds
#
# Revision: 1
# Processed by: cddbd v1.5.2PL0 Copyright (c) Steve Scherf et al.
# Submitted via: ExactAudioCopy v0.99pb5
#
DISCID=770a2c0b
DTITLE=The Watchman - Weep on, Willow
DYEAR=2004
DGENRE=Blues
TTITLE0=Drizzle
TTITLE1=Hunger And Play
TTITLE2=The Road
TTITLE3=Laundry Days
TTITLE4=Louisiana Blues
TTITLE5=Leave Me Blues
TTITLE6=Wheels
TTITLE7=Nostalgia Blues
TTITLE8=Bluff
TTITLE9=The Canyon
TTITLE10=If I Would Love You Like I Love My Guitar
EXTD=YEAR: 2004
EXTT0=
EXTT1=
EXTT2=
EXTT3=
EXTT4=
EXTT5=
EXTT6=
EXTT7=
EXTT8=
EXTT9=
EXTT10=
PLAYORDER=
